<?xml version="1.0" standalone="no"?>
<!DOCTYPE svg PUBLIC "-//W3C//DTD SVG 20010904//EN"
 "http://www.w3.org/TR/2001/REC-SVG-20010904/DTD/svg10.dtd">
<svg version="1.0" xmlns="http://www.w3.org/2000/svg"
 width="2000.000000pt" height="2000.000000pt" viewBox="0 0 2000.000000 2000.000000"
 preserveAspectRatio="xMidYMid meet">

<g transform="translate(0.000000,2000.000000) scale(0.100000,-0.100000)"
fill="#000000" stroke="none">
<path d="M10784 11649 c-21 -29 -92 -136 -159 -238 -293 -453 -511 -742 -816
-1081 -159 -178 -433 -452 -569 -571 -166 -145 -477 -371 -555 -404 -80 -33
-102 -18 -470 302 -316 274 -336 297 -321 357 3 13 51 83 106 155 l100 131
-33 16 c-51 27 -265 213 -487 424 -113 107 -269 255 -346 327 l-141 133 -7
-43 c-3 -23 -9 -153 -12 -289 -5 -173 -11 -248 -18 -248 -7 0 -36 25 -65 54
-30 30 -58 54 -63 53 -5 -1 -143 133 -308 298 l-299 299 -21 -19 c-31 -28
-110 -141 -110 -158 0 -7 79 -104 175 -216 206 -238 442 -545 481 -624 53
-108 12 -90 -173 75 -150 134 -402 341 -553 456 -69 51 -101 70 -116 66 -12
-3 -55 -47 -96 -97 -42 -51 -111 -134 -155 -186 -43 -51 -98 -118 -122 -150
-42 -53 -142 -168 -326 -375 -90 -102 -694 -698 -828 -818 -48 -43 -95 -78
-105 -78 -9 0 -51 32 -92 71 -63 59 -78 69 -97 62 -26 -10 -507 -471 -818
-783 -121 -122 -231 -228 -245 -235 -14 -8 -115 -104 -225 -214 l-200 -201 91
0 c49 0 94 4 100 8 5 5 342 5 749 0 787 -9 4745 -3 5028 8 127 5 173 4 191 -6
15 -8 40 -10 67 -6 24 4 55 7 69 7 14 1 1881 -1 4149 -3 l4123 -5 -190 186
c-372 363 -574 556 -583 556 -4 0 -84 73 -176 163 -92 90 -257 248 -366 353
l-199 189 -56 -47 c-31 -27 -97 -83 -147 -127 l-89 -78 -735 738 -734 739 -24
-75 c-13 -41 -53 -206 -88 -366 -72 -322 -83 -361 -122 -413 -50 -66 -177
-193 -278 -275 -134 -110 -189 -146 -230 -153 -26 -4 -32 -9 -27 -22 7 -19
-49 24 -161 121 -43 37 -82 68 -87 68 -16 0 -50 62 -50 90 0 14 38 140 85 280
47 140 92 281 100 312 l15 58 -647 711 c-356 392 -649 707 -651 701 -2 -6 13
-82 33 -169 44 -190 54 -288 54 -538 0 -176 -8 -277 -22 -291 -23 -24 -88 38
-412 391 -383 417 -561 609 -607 653 l-45 43 -39 -52z"/>
<path d="M6015 7630 c-67 -19 -122 -32 -150 -36 -16 -2 -85 -32 -153 -66 -146
-73 -214 -133 -283 -248 -54 -90 -99 -214 -104 -284 -2 -28 -7 -71 -12 -96
-10 -51 13 -212 42 -295 37 -102 130 -213 252 -298 60 -42 153 -90 160 -84 2
3 36 -4 75 -14 56 -16 114 -21 271 -24 211 -5 196 -7 389 46 l37 10 -1 54 c-1
30 -3 55 -4 55 -1 0 -36 -13 -77 -30 -130 -52 -182 -62 -317 -61 -155 1 -229
20 -327 83 -128 83 -221 224 -249 377 -24 133 -28 267 -10 346 32 139 74 220
158 309 87 93 148 131 245 151 108 23 187 19 304 -15 57 -17 118 -37 134 -44
78 -35 90 -29 101 57 l6 45 -48 15 c-94 30 -215 49 -299 46 -46 -2 -87 0 -91
4 -8 8 -8 8 -49 -3z"/>
<path d="M8747 7598 c-14 -24 -28 -56 -31 -72 -4 -15 -16 -40 -27 -55 -11 -15
-26 -49 -33 -76 -14 -50 -130 -311 -186 -417 -17 -31 -30 -63 -30 -70 0 -7
-13 -40 -29 -73 -17 -33 -52 -112 -79 -175 -28 -63 -73 -167 -102 -230 -29
-63 -61 -137 -71 -163 -21 -53 -20 -55 45 -60 44 -2 37 -11 99 133 25 58 60
132 79 165 l34 60 301 3 c233 2 303 -1 310 -10 17 -22 131 -251 150 -302 l19
-49 109 -1 110 -1 -3 30 c-2 17 -9 39 -16 50 -7 11 -66 142 -130 290 -303 698
-461 1047 -478 1056 -14 8 -21 2 -41 -33z m133 -635 c53 -131 90 -236 90 -256
0 -32 -3 -35 -37 -41 -49 -8 -399 -6 -438 3 -16 3 -31 13 -33 22 -2 9 49 144
113 300 64 156 121 295 127 309 9 23 11 21 48 -45 22 -39 80 -170 130 -292z"/>
<path d="M14216 7633 c-2 -3 -44 -6 -93 -7 -134 -3 -240 -47 -306 -125 -46
-55 -87 -156 -87 -214 0 -89 59 -220 117 -263 21 -15 53 -41 71 -58 17 -16 32
-26 32 -21 0 4 8 1 18 -7 9 -9 36 -25 59 -37 71 -35 243 -151 291 -195 61 -56
86 -113 83 -195 -2 -74 -17 -113 -60 -158 -79 -84 -169 -109 -321 -88 -94 13
-210 44 -262 71 -26 14 -28 13 -34 -12 -12 -47 8 -70 85 -94 147 -45 367 -64
490 -40 117 22 225 100 288 208 26 44 28 54 28 167 l0 120 -37 55 c-20 30 -53
71 -75 91 -42 40 -168 131 -195 142 -35 13 -235 152 -294 205 -84 73 -101 118
-84 214 11 61 17 74 54 108 l41 40 75 -6 c78 -6 358 -70 375 -85 17 -17 42 -9
53 16 14 29 15 74 4 92 -11 17 -69 39 -122 48 -25 3 -58 10 -75 15 -37 11
-113 19 -119 13z"/>
<path d="M6806 7601 c-18 -20 -19 -48 -18 -702 0 -435 4 -685 10 -691 12 -12
256 -11 514 2 220 12 264 23 403 108 49 30 98 60 108 67 25 18 117 150 117
168 0 9 4 19 10 22 5 3 16 27 24 53 8 26 22 65 30 87 11 30 13 71 10 165 -6
147 -24 232 -70 318 -18 34 -31 62 -28 62 11 0 -57 89 -94 122 -43 39 -162
122 -162 113 0 -3 -33 12 -72 33 -63 33 -201 71 -231 64 -4 -1 -26 2 -50 8
-23 6 -141 13 -262 16 -215 6 -220 6 -239 -15z m585 -95 c47 -16 138 -78 204
-138 72 -66 124 -146 159 -248 26 -77 29 -97 29 -225 1 -121 -2 -149 -22 -210
-52 -156 -131 -264 -236 -324 -100 -56 -158 -70 -327 -78 -128 -5 -150 -4
-173 11 l-25 17 2 579 c3 563 4 580 23 594 17 12 54 20 185 40 38 5 140 -5
181 -18z"/>
<path d="M10182 7597 c-15 -17 -16 -73 -15 -635 2 -710 3 -744 13 -757 5 -6
155 -9 423 -7 l416 2 5 28 c20 103 21 100 -16 107 -18 3 -64 1 -103 -5 -38 -7
-100 -13 -138 -15 -37 -2 -71 -6 -75 -9 -7 -4 -188 -18 -262 -20 -31 -1 -35 2
-46 39 -8 26 -13 121 -13 272 -1 226 5 278 32 295 7 4 107 8 223 8 150 0 213
3 222 12 14 14 16 44 2 53 -11 7 -137 12 -329 14 l-144 1 6 252 c5 184 11 254
20 260 53 34 257 35 481 2 137 -21 136 -22 136 70 l0 58 -411 -3 c-382 -4
-412 -5 -427 -22z"/>
<path d="M11263 7608 l-33 -9 23 -37 c13 -20 31 -57 42 -82 10 -25 26 -54 36
-65 9 -11 36 -58 59 -105 22 -47 45 -92 50 -100 30 -48 100 -179 109 -203 6
-16 22 -43 35 -60 14 -18 40 -65 59 -105 20 -40 40 -78 45 -85 5 -7 12 -127
15 -267 3 -140 8 -262 12 -270 4 -12 24 -15 100 -15 112 0 104 -13 105 170 1
72 5 191 9 265 8 150 19 183 134 408 28 57 52 108 52 115 1 7 38 86 84 177 97
193 124 261 112 273 -5 5 -25 7 -45 3 -37 -7 -67 -39 -81 -86 -4 -14 -29 -68
-56 -120 -27 -52 -81 -167 -120 -255 -87 -194 -147 -315 -157 -315 -9 0 -28
35 -184 340 -163 319 -216 418 -231 427 -17 11 -137 12 -174 1z"/>
<path d="M12579 7608 c-19 -7 -19 -23 -19 -708 l0 -701 417 1 c274 1 422 5
430 12 15 12 17 86 4 106 -11 19 -71 22 -140 7 -32 -6 -73 -11 -92 -9 -19 1
-59 -2 -89 -8 -30 -6 -82 -12 -115 -13 -33 -1 -83 -6 -110 -10 -43 -6 -53 -4
-69 14 -17 19 -18 38 -14 295 3 208 7 278 17 290 11 14 42 16 205 16 105 0
201 3 214 6 27 8 31 49 5 58 -10 4 -109 10 -221 13 -186 6 -204 8 -213 25 -12
22 -15 382 -4 446 6 38 12 46 44 59 50 22 213 21 324 -1 49 -9 117 -21 150
-25 34 -4 68 -10 76 -12 9 -3 18 13 27 46 17 63 17 95 2 95 -178 5 -815 3
-829 -2z"/>
<path d="M4879 5764 c-11 -5 -16 -13 -13 -17 11 -11 2384 -8 2384 3 0 16 -39
31 -57 22 -10 -5 -46 -6 -80 -3 -34 4 -86 4 -115 1 -29 -3 -82 -1 -118 3 -36
4 -92 5 -125 2 -33 -4 -152 -6 -265 -5 -329 4 -590 5 -990 4 -206 0 -426 0
-488 0 -62 1 -122 -4 -133 -10z"/>
<path d="M12999 5764 c-11 -5 -16 -13 -13 -17 11 -11 2362 -9 2369 2 14 23
-25 25 -475 18 -47 -1 -224 0 -395 0 -170 1 -319 2 -330 2 -11 0 -180 1 -375
1 -195 1 -407 1 -470 1 -63 0 -155 1 -203 2 -49 1 -97 -3 -108 -9z"/>
<path d="M11819 5350 c-1 -110 -2 -206 -3 -212 -1 -16 178 -24 209 -10 11 5
37 16 57 25 57 25 93 94 90 174 -2 68 -16 104 -62 157 -32 36 -39 37 -242 60
l-48 6 -1 -200z m194 95 c53 -22 67 -49 67 -125 0 -37 -5 -74 -12 -83 -8 -10
-39 -22 -76 -28 -89 -16 -92 -12 -92 123 0 103 1 109 23 118 32 13 50 12 90
-5z"/>
<path d="M7868 5533 c-10 -3 -18 -10 -18 -16 0 -7 -3 -84 -6 -172 -2 -88 -1
-173 4 -190 7 -26 13 -30 43 -30 l34 0 0 62 c1 92 13 95 76 23 51 -59 100 -90
140 -90 34 0 30 20 -14 73 -24 28 -56 73 -71 99 l-27 47 21 41 c11 23 37 62
56 87 38 50 39 64 5 70 -18 2 -39 -13 -92 -69 -38 -39 -70 -70 -72 -67 -15 17
-27 53 -27 83 0 37 -20 56 -52 49z"/>
<path d="M8398 5338 c-2 -112 0 -208 5 -214 8 -13 44 -8 65 9 9 7 11 22 7 44
-3 18 -1 51 5 73 9 33 15 40 36 40 34 0 67 -36 83 -90 19 -67 25 -75 57 -78
48 -4 55 7 40 63 -7 28 -23 67 -35 87 l-22 37 22 43 c38 73 39 77 30 101 -10
26 -65 77 -84 78 -7 0 -55 2 -109 5 l-96 5 -4 -203z m199 83 c8 -31 -18 -51
-68 -51 -33 0 -38 3 -44 30 -9 41 2 68 28 72 31 6 77 -22 84 -51z"/>
<path d="M9108 5533 c-10 -3 -18 -10 -18 -16 0 -7 -3 -84 -6 -172 -2 -88 -1
-173 4 -190 7 -26 13 -30 43 -30 l34 0 0 62 c1 92 13 95 78 20 40 -45 69 -68
97 -77 63 -21 71 -3 27 57 -20 26 -50 71 -67 100 l-31 52 25 50 c14 27 29 51
34 53 16 5 62 80 56 89 -3 5 -17 9 -31 9 -19 0 -44 -19 -94 -72 -38 -39 -70
-70 -72 -67 -15 17 -27 53 -27 83 0 37 -20 56 -52 49z"/>
<path d="M9490 5525 c-9 -11 -14 -64 -16 -169 l-2 -154 31 -30 c42 -40 79 -54
149 -53 55 0 118 22 118 41 0 5 8 16 18 26 25 26 32 292 8 329 -38 57 -61 15
-71 -125 -11 -158 -30 -195 -98 -188 -25 2 -35 10 -49 38 -18 38 -39 228 -26
236 15 10 8 43 -11 54 -27 14 -36 13 -51 -5z"/>
<path d="M9934 5529 c-11 -18 -16 -276 -7 -344 7 -53 11 -60 32 -63 13 -2 28
2 32 10 5 7 9 63 9 125 0 61 4 114 9 118 5 3 32 -34 60 -82 74 -128 131 -184
173 -168 12 5 15 40 17 196 2 189 -3 219 -33 219 -34 -1 -40 -19 -46 -136 l-5
-117 -50 72 c-27 40 -59 90 -70 112 -12 21 -25 43 -30 48 -17 15 -83 23 -91
10z"/>
<path d="M10343 5533 c-16 -6 -17 -45 -1 -61 7 -7 29 -12 49 -12 20 0 41 -6
46 -12 6 -7 11 -78 12 -158 1 -156 6 -170 57 -170 30 0 34 16 34 134 0 57 3
124 6 150 7 45 8 46 46 52 22 4 43 14 48 25 13 23 13 25 -6 44 -14 13 -38 16
-148 14 -72 -1 -137 -4 -143 -6z"/>
<path d="M10703 5534 c-13 -3 -23 -11 -23 -18 0 -25 30 -38 110 -49 44 -6 80
-13 80 -17 0 -9 -88 -129 -126 -172 -39 -44 -67 -104 -59 -129 7 -20 73 -29
204 -26 67 2 86 5 95 19 17 28 -4 39 -96 51 -45 6 -85 12 -86 13 -2 1 29 48
70 104 101 141 108 152 108 176 0 12 -6 27 -14 33 -14 12 -223 24 -263 15z"/>
<path d="M11454 5516 c-73 -37 -96 -74 -102 -160 -6 -99 9 -145 63 -195 43
-40 47 -41 112 -41 85 1 121 19 167 85 33 46 36 56 36 121 0 65 -3 76 -33 120
-62 90 -152 116 -243 70z m159 -96 c21 -24 27 -40 27 -76 0 -122 -92 -184
-168 -115 -30 28 -32 35 -32 93 0 35 6 74 13 88 29 58 112 63 160 10z"/>
<path d="M8230 5184 c-19 -35 -3 -59 41 -59 30 0 34 3 37 30 6 53 -54 75 -78
29z"/>
<path d="M8776 5189 c-13 -20 -14 -26 -3 -43 20 -29 32 -30 63 -2 24 20 27 28
18 43 -17 28 -59 28 -78 2z"/>
<path d="M11060 5192 c-21 -17 -21 -18 -4 -60 16 -42 16 -44 -5 -73 -38 -51
-3 -68 42 -21 44 46 60 127 31 156 -20 21 -37 20 -64 -2z"/>
</g>
</svg>
